<svg xmlns="http://www.w3.org/2000/svg" viewBox="0 0 1080 1080"><defs><style>.cls-1{fill:#5800ff;stroke:#5800ff;}.cls-1,.cls-2{stroke-miterlimit:10;}.cls-2{fill:#fff;stroke:#fff;fill-rule:evenodd;}</style></defs><g id="Capa_3" data-name="Capa 3"><rect class="cls-1" x="0.5" y="-0.5" width="1080" height="1080"/></g><g id="Capa_2" data-name="Capa 2"><path class="cls-2" d="M186.08,176.47C112.13,198,55.31,256.65,37,330.3c-9.31,37.39-10.45,209.22-1.38,209,3.16-.09,27.46-22.88,54-50.66,58-60.65,83-75.57,131-78.05,24.87-1.29,38.42.76,59.74,9.06,25.06,9.75,37,20.48,131,117.54,108.68,112.26,117.37,118.72,145.11,107.9,14.07-5.48,158.2-152.2,158.2-161,0-2.8-8.27-13.53-18.38-23.84-21-21.47-24.06-38.61-8-45.46,13.15-5.64,198.18-20.24,207.75-16.4,11.9,4.77,12.34,19.18,3.8,126.13-7.63,95.6-8.9,103.19-18.31,109.7s-11.51,5.61-32.64-15c-12.4-12.11-24.22-22-26.27-22-6.05,0-158.11,159.47-168.24,176.44-5.45,9.15-8.11,19.36-6.45,24.83,5,16.54,64.87,70.92,95.26,86.56C825.57,927.36,921.6,909.78,988.34,840c30-31.41,48.23-66,56.58-107.47,3.23-16,5.13-90,5.13-199.52,0-141.83-1.33-179.38-7.14-202.7-28.13-112.91-143.16-183.08-251.69-153.54-46.39,12.63-62.73,25.28-153,118.38-62.58,64.57-90.82,90.59-98.33,90.59s-35.75-26-98.33-90.59c-49.85-51.44-96.17-95-107.18-100.89-44-23.35-104.39-30.59-148.35-17.78m25.28,406.09c-5.06,2.25-45.15,41.88-89.09,88.05-90,94.56-87.33,88.58-59.46,134.21,43.91,71.86,134.24,114.33,213.84,100.54,16.94-2.93,44-12.14,60.18-20.46,30.39-15.64,90.23-70,95.26-86.56,4.64-15.3-11.42-35.87-97.57-125-94.94-98.22-99.29-101.43-123.16-90.79"/></g></svg>